<svg width="51" height="39" viewBox="0 0 51 39" fill="none" xmlns="http://www.w3.org/2000/svg">
<path d="M49.8034 11.1563H43.8398L42.1823 7.01251C40.479 2.75221 36.4139 0 31.8249 0H19.1745C14.5865 0 10.5204 2.75221 8.81608 7.01251L7.15857 11.1563H1.19595C0.417998 11.1563 -0.152765 11.8874 0.0364933 12.6414L0.63415 15.0321C0.766631 15.564 1.24476 15.9375 1.7936 15.9375H3.79277C2.45501 17.1059 1.59339 18.8043 1.59339 20.7188V25.5C1.59339 27.1057 2.20698 28.5551 3.18714 29.6767V35.0625C3.18714 36.8226 4.61455 38.25 6.37465 38.25H9.56215C11.3223 38.25 12.7497 36.8226 12.7497 35.0625V31.875H38.2497V35.0625C38.2497 36.8226 39.6771 38.25 41.4372 38.25H44.6247C46.3848 38.25 47.8122 36.8226 47.8122 35.0625V29.6767C48.7924 28.5561 49.406 27.1067 49.406 25.5V20.7188C49.406 18.8043 48.5443 17.1059 47.2076 15.9375H49.2067C49.7556 15.9375 50.2337 15.564 50.3662 15.0321L50.9638 12.6414C51.1521 11.8874 50.5813 11.1563 49.8034 11.1563ZM14.7349 9.38023C15.461 7.56534 17.2191 6.37501 19.1745 6.37501H31.8249C33.7802 6.37501 35.5383 7.56534 36.2645 9.38023L38.2497 14.3438H12.7497L14.7349 9.38023ZM9.56215 25.4801C7.64965 25.4801 6.37465 24.2091 6.37465 22.3026C6.37465 20.396 7.64965 19.125 9.56215 19.125C11.4747 19.125 14.3434 21.9848 14.3434 23.8913C14.3434 25.7979 11.4747 25.4801 9.56215 25.4801ZM41.4372 25.4801C39.5247 25.4801 36.6559 25.7979 36.6559 23.8913C36.6559 21.9848 39.5247 19.125 41.4372 19.125C43.3497 19.125 44.6247 20.396 44.6247 22.3026C44.6247 24.2091 43.3497 25.4801 41.4372 25.4801Z" fill="#E6AB13"/>
</svg>
