<svg width="73" height="78" viewBox="0 0 73 78" fill="none" xmlns="http://www.w3.org/2000/svg">
<path d="M29.2031 12.5156V13.9062H43.1094V12.5156C43.1094 10.6715 42.3768 8.90299 41.0729 7.59902C39.7689 6.29506 38.0003 5.5625 36.1562 5.5625C34.3122 5.5625 32.5436 6.29506 31.2396 7.59902C29.9357 8.90299 29.2031 10.6715 29.2031 12.5156ZM23.6406 13.9062V12.5156C23.6406 9.19627 24.9592 6.01288 27.3064 3.66574C29.6535 1.31861 32.8369 0 36.1562 0C39.4756 0 42.659 1.31861 45.0061 3.66574C47.3533 6.01288 48.6719 9.19627 48.6719 12.5156V13.9062H69.5312C70.2689 13.9062 70.9763 14.1993 71.4979 14.7209C72.0195 15.2424 72.3125 15.9499 72.3125 16.6875C72.3125 17.4251 72.0195 18.1326 71.4979 18.6541C70.9763 19.1757 70.2689 19.4688 69.5312 19.4688H65.3371L60.075 65.5485C59.687 68.9421 58.0635 72.0743 55.5142 74.3476C52.9648 76.621 49.6679 77.8766 46.2522 77.875H26.0603C22.6446 77.8766 19.3477 76.621 16.7983 74.3476C14.249 72.0743 12.6255 68.9421 12.2375 65.5485L6.97537 19.4688H2.78125C2.04362 19.4688 1.33619 19.1757 0.814609 18.6541C0.293024 18.1326 0 17.4251 0 16.6875C0 15.9499 0.293024 15.2424 0.814609 14.7209C1.33619 14.1993 2.04362 13.9062 2.78125 13.9062H23.6406ZM30.5938 31.9844C30.5938 31.2467 30.3007 30.5393 29.7791 30.0177C29.2576 29.4961 28.5501 29.2031 27.8125 29.2031C27.0749 29.2031 26.3674 29.4961 25.8459 30.0177C25.3243 30.5393 25.0312 31.2467 25.0312 31.9844V59.7969C25.0312 60.5345 25.3243 61.2419 25.8459 61.7635C26.3674 62.2851 27.0749 62.5781 27.8125 62.5781C28.5501 62.5781 29.2576 62.2851 29.7791 61.7635C30.3007 61.2419 30.5938 60.5345 30.5938 59.7969V31.9844ZM44.5 29.2031C43.7624 29.2031 43.0549 29.4961 42.5334 30.0177C42.0118 30.5393 41.7188 31.2467 41.7188 31.9844V59.7969C41.7188 60.5345 42.0118 61.2419 42.5334 61.7635C43.0549 62.2851 43.7624 62.5781 44.5 62.5781C45.2376 62.5781 45.9451 62.2851 46.4666 61.7635C46.9882 61.2419 47.2812 60.5345 47.2812 59.7969V31.9844C47.2812 31.2467 46.9882 30.5393 46.4666 30.0177C45.9451 29.4961 45.2376 29.2031 44.5 29.2031Z" fill="black"/>
</svg>
