<svg width="51" height="51" viewBox="0 0 51 51" fill="none" xmlns="http://www.w3.org/2000/svg">
<path d="M7.36319 42.2068H6.2805C5.85714 42.2062 5.4447 42.0725 5.10149 41.8246C4.75828 41.5767 4.50169 41.2272 4.368 40.8255L4.02481 39.7832C4.00865 39.7338 3.9773 39.6908 3.93522 39.6603C3.89314 39.6298 3.8425 39.6134 3.79053 39.6134C3.73856 39.6134 3.68792 39.6298 3.64584 39.6603C3.60377 39.6908 3.57241 39.7338 3.55625 39.7832L3.212 40.8287C3.07972 41.2313 2.82349 41.5817 2.47996 41.8298C2.13644 42.0779 1.72324 42.211 1.2995 42.21H0.246563C0.194454 42.21 0.143681 42.2265 0.101536 42.2571C0.0593908 42.2878 0.0280409 42.331 0.0119882 42.3805C-0.0040645 42.4301 -0.00399409 42.4835 0.0121893 42.533C0.0283727 42.5826 0.0598365 42.6257 0.102063 42.6562L0.968 43.2852C1.31329 43.536 1.56976 43.8903 1.70024 44.2966C1.83071 44.7029 1.82842 45.1402 1.69369 45.5452L1.35794 46.5545C1.34142 46.6043 1.34111 46.658 1.35706 46.7079C1.373 46.7578 1.40438 46.8014 1.44667 46.8324C1.48897 46.8633 1.53999 46.88 1.5924 46.8801C1.64481 46.8802 1.6959 46.8637 1.73831 46.8329L2.60956 46.2018C2.95263 45.9529 3.36562 45.8188 3.78947 45.8188C4.21332 45.8188 4.62631 45.9529 4.96937 46.2018L5.85231 46.8393C5.89456 46.8701 5.94549 46.8868 5.99779 46.8869C6.05009 46.887 6.10108 46.8705 6.14344 46.8398C6.18579 46.8091 6.21735 46.7658 6.23357 46.7161C6.2498 46.6664 6.24986 46.6128 6.23375 46.563L5.90012 45.5335C5.76945 45.1301 5.7699 44.6956 5.90141 44.2925C6.03293 43.8894 6.28876 43.5382 6.63219 43.2895L7.50769 42.652C7.54947 42.6213 7.58051 42.5782 7.59641 42.5289C7.61231 42.4796 7.61226 42.4265 7.59626 42.3772C7.58025 42.3279 7.54912 42.2849 7.50728 42.2543C7.46544 42.2237 7.41502 42.2071 7.36319 42.2068ZM18.2113 42.2068H17.1276C16.7042 42.2062 16.2918 42.0725 15.9486 41.8246C15.6053 41.5767 15.3488 41.2272 15.2151 40.8255L14.8751 39.779C14.8589 39.7296 14.8275 39.6866 14.7855 39.6561C14.7434 39.6256 14.6928 39.6091 14.6408 39.6091C14.5888 39.6091 14.5382 39.6256 14.4961 39.6561C14.454 39.6866 14.4227 39.7296 14.4065 39.779L14.0633 40.8245C13.9309 41.227 13.6746 41.5773 13.3311 41.8254C12.9876 42.0734 12.5745 42.2066 12.1508 42.2057H11.0957C11.0436 42.2055 10.9926 42.2218 10.9503 42.2524C10.908 42.283 10.8765 42.3262 10.8603 42.3758C10.8441 42.4254 10.8441 42.4789 10.8602 42.5285C10.8764 42.5782 10.9079 42.6214 10.9502 42.652L11.8161 43.281C12.1615 43.5317 12.4181 43.8859 12.5486 44.2923C12.6791 44.6986 12.6767 45.136 12.5418 45.5409L12.2061 46.5503C12.1895 46.6 12.1892 46.6537 12.2052 46.7037C12.2211 46.7536 12.2525 46.7972 12.2948 46.8281C12.3371 46.8591 12.3881 46.8758 12.4405 46.8759C12.4929 46.876 12.544 46.8595 12.5864 46.8287L13.4577 46.1975C13.801 45.9487 14.2141 45.8147 14.6381 45.8147C15.0621 45.8147 15.4753 45.9487 15.8186 46.1975L16.7015 46.835C16.7438 46.8654 16.7945 46.8817 16.8466 46.8816C16.8987 46.8815 16.9494 46.865 16.9915 46.8344C17.0336 46.8038 17.065 46.7607 17.0813 46.7112C17.0975 46.6617 17.0977 46.6084 17.0819 46.5588L16.7493 45.5292C16.6185 45.1259 16.6188 44.6916 16.7501 44.2884C16.8815 43.8853 17.1371 43.5341 17.4803 43.2852L18.3569 42.6477C18.397 42.6165 18.4265 42.5736 18.4413 42.525C18.4561 42.4763 18.4555 42.4242 18.4395 42.376C18.4236 42.3277 18.3931 42.2855 18.3522 42.2552C18.3114 42.2249 18.2622 42.208 18.2113 42.2068ZM29.0584 42.2068H27.9757C27.5523 42.2062 27.1399 42.0725 26.7967 41.8246C26.4535 41.5767 26.1969 41.2272 26.0632 40.8255L25.7211 39.7832C25.7049 39.7338 25.6735 39.6908 25.6315 39.6603C25.5894 39.6298 25.5388 39.6134 25.4868 39.6134C25.4348 39.6134 25.3842 39.6298 25.3421 39.6603C25.3 39.6908 25.2687 39.7338 25.2525 39.7832L24.9083 40.8287C24.7758 41.2312 24.5196 41.5815 24.1761 41.8296C23.8326 42.0777 23.4195 42.2108 22.9958 42.21H21.9407C21.8886 42.21 21.8378 42.2265 21.7957 42.2571C21.7535 42.2878 21.7222 42.331 21.7061 42.3805C21.6901 42.4301 21.6901 42.4835 21.7063 42.533C21.7225 42.5826 21.754 42.6257 21.7962 42.6562L22.6621 43.2852C23.0074 43.536 23.2639 43.8903 23.3944 44.2966C23.5248 44.7029 23.5225 45.1402 23.3878 45.5452L23.051 46.5545C23.0345 46.6043 23.0342 46.658 23.0501 46.7079C23.0661 46.7578 23.0974 46.8014 23.1397 46.8324C23.182 46.8633 23.2331 46.88 23.2855 46.8801C23.3379 46.8802 23.389 46.8637 23.4314 46.8329L24.3026 46.2018C24.6459 45.953 25.0591 45.819 25.4831 45.819C25.9071 45.819 26.3202 45.953 26.6635 46.2018L27.5464 46.8393C27.5886 46.8705 27.6395 46.8874 27.6919 46.8876C27.7443 46.8878 27.7954 46.8713 27.8378 46.8405C27.8802 46.8098 27.9117 46.7663 27.9277 46.7164C27.9437 46.6665 27.9434 46.6128 27.9268 46.563L27.5943 45.5335C27.4636 45.1301 27.464 44.6956 27.5955 44.2925C27.7271 43.8894 27.9829 43.5382 28.3263 43.2895L29.2018 42.652C29.2435 42.6214 29.2745 42.5784 29.2905 42.5292C29.3064 42.4799 29.3064 42.4269 29.2906 42.3777C29.2747 42.3284 29.2437 42.2854 29.2021 42.2548C29.1604 42.2241 29.1101 42.2073 29.0584 42.2068ZM39.9054 42.2068H38.8228C38.3994 42.2062 37.9869 42.0725 37.6437 41.8246C37.3005 41.5767 37.0439 41.2272 36.9102 40.8255L36.5671 39.7832C36.5509 39.7338 36.5195 39.6908 36.4775 39.6603C36.4354 39.6298 36.3848 39.6134 36.3328 39.6134C36.2808 39.6134 36.2302 39.6298 36.1881 39.6603C36.146 39.6908 36.1147 39.7338 36.0985 39.7832L35.7553 40.8287C35.6227 41.2311 35.3664 41.5814 35.023 41.8294C34.6795 42.0775 34.2665 42.2107 33.8428 42.21H32.7888C32.7367 42.21 32.6859 42.2265 32.6438 42.2571C32.6016 42.2878 32.5703 42.331 32.5542 42.3805C32.5382 42.4301 32.5383 42.4835 32.5544 42.533C32.5706 42.5826 32.6021 42.6257 32.6443 42.6562L33.5103 43.2852C33.8555 43.536 34.112 43.8903 34.2425 44.2966C34.373 44.7029 34.3707 45.1402 34.2359 45.5452L33.9002 46.5545C33.8837 46.6043 33.8834 46.658 33.8993 46.7079C33.9153 46.7578 33.9466 46.8014 33.9889 46.8324C34.0312 46.8633 34.0822 46.88 34.1346 46.8801C34.1871 46.8802 34.2381 46.8637 34.2806 46.8329L35.1518 46.2018C35.4951 45.953 35.9083 45.819 36.3322 45.819C36.7562 45.819 37.1694 45.953 37.5127 46.2018L38.3946 46.8393C38.4368 46.8701 38.4877 46.8868 38.54 46.8869C38.5923 46.887 38.6433 46.8705 38.6857 46.8398C38.728 46.8091 38.7596 46.7658 38.7758 46.7161C38.792 46.6664 38.7921 46.6128 38.776 46.563L38.4424 45.5335C38.3117 45.1301 38.3121 44.6956 38.4437 44.2925C38.5752 43.8894 38.831 43.5382 39.1744 43.2895L40.0499 42.652C40.0917 42.6213 40.1228 42.5782 40.1387 42.5289C40.1546 42.4796 40.1545 42.4265 40.1385 42.3772C40.1225 42.3279 40.0914 42.2849 40.0495 42.2543C40.0077 42.2237 39.9573 42.2071 39.9054 42.2068ZM50.7536 42.2068H49.6698C49.2465 42.2062 48.834 42.0725 48.4908 41.8246C48.1476 41.5767 47.891 41.2272 47.7573 40.8255L47.4141 39.7832C47.3983 39.7337 47.3671 39.6905 47.3251 39.6598C47.2831 39.6292 47.2324 39.6126 47.1804 39.6126C47.1284 39.6126 47.0777 39.6292 47.0357 39.6598C46.9937 39.6905 46.9625 39.7337 46.9466 39.7832L46.6024 40.8287C46.47 41.2312 46.2137 41.5815 45.8702 41.8296C45.5267 42.0777 45.1136 42.2108 44.6899 42.21H43.6369C43.5848 42.21 43.5341 42.2265 43.4919 42.2571C43.4498 42.2878 43.4184 42.331 43.4024 42.3805C43.3863 42.4301 43.3864 42.4835 43.4026 42.533C43.4187 42.5826 43.4502 42.6257 43.4924 42.6562L44.3573 43.2852C44.7027 43.5359 44.9593 43.8901 45.0898 44.2965C45.2203 44.7029 45.2179 45.1403 45.083 45.5452L44.7472 46.5545C44.7307 46.6043 44.7304 46.658 44.7464 46.7079C44.7623 46.7578 44.7937 46.8014 44.836 46.8324C44.8783 46.8633 44.9293 46.88 44.9817 46.8801C45.0341 46.8802 45.0852 46.8637 45.1276 46.8329L45.9989 46.2018C46.3422 45.953 46.7553 45.819 47.1793 45.819C47.6033 45.819 48.0165 45.953 48.3597 46.2018L49.2427 46.8393C49.285 46.8697 49.3357 46.886 49.3878 46.8859C49.4399 46.8857 49.4906 46.8692 49.5327 46.8386C49.5748 46.808 49.6062 46.7649 49.6225 46.7154C49.6387 46.666 49.6389 46.6126 49.6231 46.563L49.2905 45.5335C49.1598 45.1301 49.1603 44.6956 49.2918 44.2925C49.4233 43.8894 49.6791 43.5382 50.0226 43.2895L50.8981 42.652C50.9398 42.6213 50.9709 42.5782 50.9868 42.5289C51.0027 42.4796 51.0026 42.4265 50.9866 42.3772C50.9706 42.3279 50.9395 42.2849 50.8977 42.2543C50.8558 42.2237 50.8054 42.2071 50.7536 42.2068Z" fill="#E6AB13"/>
<path d="M16.0435 15.6655H9.19141V35.5109H16.0435V15.6655Z" fill="#E6AB13"/>
<path d="M39.2998 17.171H28.9235C28.8689 17.1714 28.8153 17.157 28.7683 17.1294C28.7213 17.1018 28.6827 17.0619 28.6565 17.014C28.6304 16.9662 28.6177 16.9122 28.6198 16.8577C28.6219 16.8032 28.6387 16.7503 28.6685 16.7046C29.969 14.8249 30.815 12.6687 31.1398 10.4061C31.3226 8.21523 30.6692 4.11292 27.4434 4.11292C24.1571 4.11292 24.4971 7.28766 24.0094 9.14173C23.5536 10.8757 23.016 12.2315 20.2322 14.6954C19.2941 15.5835 18.4456 16.5618 17.6992 17.6162V33.0437C17.6992 33.0437 22.2393 35.5194 23.7236 35.5194H38.2044C38.761 35.5191 39.2948 35.2978 39.6883 34.904C40.0818 34.5103 40.3028 33.9765 40.3028 33.4199C40.3028 32.2607 39.9108 31.3204 38.7516 31.3204C39.0312 31.3266 39.3093 31.277 39.5694 31.1743C39.8296 31.0717 40.0666 30.9181 40.2666 30.7226C40.4666 30.527 40.6255 30.2935 40.734 30.0357C40.8424 29.7779 40.8983 29.5011 40.8983 29.2214C40.8983 28.9417 40.8424 28.6648 40.734 28.407C40.6255 28.1493 40.4666 27.9157 40.2666 27.7202C40.0666 27.5247 39.8296 27.3711 39.5694 27.2684C39.3093 27.1658 39.0312 27.1161 38.7516 27.1224C39.3681 27.1351 39.9698 26.9324 40.4529 26.5491C40.936 26.1659 41.2703 25.6262 41.3983 25.0229V24.2473C41.3983 23.6907 41.1772 23.1568 40.7837 22.7631C40.3902 22.3694 39.8565 22.1481 39.2998 22.1478C39.8565 22.1475 40.3902 21.9262 40.7837 21.5325C41.1772 21.1388 41.3983 20.6049 41.3983 20.0483V19.2727C41.3986 18.9969 41.3445 18.7237 41.2392 18.4688C41.1339 18.2139 40.9793 17.9823 40.7845 17.7871C40.5896 17.5919 40.3582 17.4371 40.1035 17.3314C39.8487 17.2257 39.5756 17.1712 39.2998 17.171Z" fill="#E6AB13"/>
</svg>
