<svg width="42" height="32" viewBox="0 0 42 32" fill="none" xmlns="http://www.w3.org/2000/svg">
<path d="M41.2043 10.6516C41.5242 10.3973 42 10.6352 42 11.0371V27.8125C42 29.9863 40.2363 31.75 38.0625 31.75H3.9375C1.76367 31.75 0 29.9863 0 27.8125V11.0453C0 10.6352 0.467578 10.4055 0.795703 10.6598C2.6332 12.0871 5.06953 13.9 13.4367 19.9785C15.1676 21.2418 18.0879 23.8996 21 23.8832C23.9285 23.9078 26.9062 21.1926 28.5715 19.9785C36.9387 13.9 39.3668 12.0789 41.2043 10.6516ZM21 21.25C22.9031 21.2828 25.643 18.8547 27.0211 17.8539C37.9066 9.9543 38.7352 9.26523 41.2453 7.29648C41.7211 6.92734 42 6.35312 42 5.74609V4.1875C42 2.01367 40.2363 0.25 38.0625 0.25H3.9375C1.76367 0.25 0 2.01367 0 4.1875V5.74609C0 6.35312 0.278906 6.91914 0.754687 7.29648C3.26484 9.25703 4.09336 9.9543 14.9789 17.8539C16.357 18.8547 19.0969 21.2828 21 21.25Z" fill="#E6AB13"/>
</svg>
