<svg width="60" height="60" viewBox="0 0 60 60" fill="none" xmlns="http://www.w3.org/2000/svg">
<path d="M24.2735 28.225C23.8028 27.7542 23.1643 27.4898 22.4985 27.4898C21.8328 27.4898 21.1943 27.7542 20.7235 28.225C20.2528 28.6957 19.9883 29.3342 19.9883 30C19.9883 30.6657 20.2528 31.3042 20.7235 31.775L28.2235 39.275C28.4571 39.5067 28.7342 39.69 29.0387 39.8144C29.3433 39.9388 29.6695 40.0019 29.9985 40C30.3408 39.9891 30.6771 39.9081 30.9868 39.7619C31.2964 39.6156 31.5727 39.4074 31.7985 39.15L49.2985 19.15C49.7026 18.6483 49.8974 18.01 49.8424 17.3682C49.7873 16.7264 49.4867 16.1306 49.0031 15.705C48.5195 15.2794 47.8903 15.057 47.2467 15.084C46.6031 15.111 45.9947 15.3854 45.5485 15.85L29.9985 33.85L24.2735 28.225Z" fill="white"/>
<path d="M52.501 27.5C51.838 27.5 51.2021 27.7634 50.7332 28.2322C50.2644 28.7011 50.001 29.337 50.001 30C50.001 35.3043 47.8939 40.3914 44.1431 44.1421C40.3924 47.8929 35.3053 50 30.001 50C26.0512 49.9982 22.1904 48.8269 18.9054 46.6339C15.6204 44.4408 13.0583 41.3242 11.5422 37.6769C10.0261 34.0297 9.62386 30.0152 10.3862 26.1397C11.1486 22.2642 13.0414 18.7012 15.826 15.9C17.6778 14.0235 19.8852 12.5351 22.3191 11.522C24.7531 10.509 27.3646 9.99153 30.001 10C31.5996 10.01 33.1924 10.1944 34.751 10.55C35.0772 10.6509 35.4205 10.6839 35.76 10.647C36.0994 10.6101 36.4276 10.5041 36.7245 10.3355C37.0214 10.1668 37.2805 9.93919 37.486 9.66656C37.6916 9.39394 37.8391 9.08211 37.9195 8.75029C37.9998 8.41848 38.0114 8.07371 37.9535 7.73726C37.8955 7.4008 37.7692 7.07978 37.5825 6.79399C37.3957 6.50819 37.1524 6.26369 36.8675 6.07554C36.5826 5.88739 36.2622 5.75958 35.926 5.70001C33.9839 5.24311 31.9961 5.00828 30.001 5.00001C25.0618 5.02567 20.241 6.51381 16.1467 9.27664C12.0525 12.0395 8.86843 15.9532 6.9963 20.5238C5.12417 25.0945 4.64789 30.1173 5.62758 34.9584C6.60728 39.7995 8.99902 44.2419 12.501 47.725C17.1427 52.3688 23.4351 54.9847 30.001 55C36.6314 55 42.9903 52.3661 47.6787 47.6777C52.3671 42.9893 55.001 36.6304 55.001 30C55.001 29.337 54.7376 28.7011 54.2688 28.2322C53.7999 27.7634 53.164 27.5 52.501 27.5Z" fill="#E6AB13"/>
</svg>
