<svg width="51" height="51" viewBox="0 0 51 51" fill="none" xmlns="http://www.w3.org/2000/svg">
<path d="M27.0919 16.6729C28.7502 16.6729 30.3405 17.3316 31.513 18.5041C32.6856 19.6767 33.3443 21.267 33.3443 22.9252C33.3443 23.478 33.5639 24.0081 33.9547 24.3989C34.3456 24.7898 34.8757 25.0093 35.4284 25.0093C35.9811 25.0093 36.5112 24.7898 36.9021 24.3989C37.2929 24.0081 37.5125 23.478 37.5125 22.9252C37.5125 20.1615 36.4146 17.511 34.4604 15.5568C32.5062 13.6025 29.8556 12.5046 27.0919 12.5046C26.5392 12.5046 26.0091 12.7242 25.6182 13.1151C25.2274 13.5059 25.0078 14.036 25.0078 14.5888C25.0078 15.1415 25.2274 15.6716 25.6182 16.0625C26.0091 16.4533 26.5392 16.6729 27.0919 16.6729Z" fill="#E6AB13"/>
<path d="M27.0919 8.3362C30.9611 8.3362 34.6719 9.87324 37.4078 12.6092C40.1437 15.3451 41.6808 19.0558 41.6808 22.925C41.6808 23.4778 41.9003 24.0079 42.2912 24.3987C42.682 24.7896 43.2121 25.0091 43.7649 25.0091C44.3176 25.0091 44.8477 24.7896 45.2386 24.3987C45.6294 24.0079 45.849 23.4778 45.849 22.925C45.849 17.9503 43.8728 13.1794 40.3552 9.66178C36.8375 6.14415 32.0666 4.16797 27.0919 4.16797C26.5392 4.16797 26.0091 4.38754 25.6182 4.77839C25.2274 5.16924 25.0078 5.69934 25.0078 6.25209C25.0078 6.80483 25.2274 7.33493 25.6182 7.72578C26.0091 8.11663 26.5392 8.3362 27.0919 8.3362Z" fill="#E6AB13"/>
<path d="M45.3293 33.158C45.2147 32.8235 45.0168 32.5236 44.7543 32.2866C44.4918 32.0496 44.1732 31.8833 43.8287 31.8034L31.324 28.9481C30.9846 28.8712 30.6313 28.8804 30.2964 28.9751C29.9615 29.0697 29.6556 29.2468 29.4066 29.49C29.1149 29.7609 29.094 29.7818 27.7393 32.3661C23.2443 30.2948 19.6425 26.6782 17.5897 22.1747C20.2365 20.8409 20.2574 20.8409 20.5283 20.5283C20.7715 20.2794 20.9486 19.9735 21.0432 19.6385C21.1379 19.3036 21.1471 18.9503 21.0702 18.6109L18.2149 6.25209C18.135 5.90757 17.9687 5.58907 17.7317 5.32655C17.4947 5.06404 17.1948 4.86615 16.8602 4.75152C16.3735 4.57768 15.8709 4.45203 15.3597 4.37638C14.8329 4.25424 14.2954 4.18443 13.7549 4.16797C11.2123 4.16797 8.77382 5.17802 6.97592 6.97592C5.17802 8.77382 4.16797 11.2123 4.16797 13.7549C4.179 22.2638 7.56401 30.4209 13.5807 36.4376C19.5973 42.4543 27.7545 45.8393 36.2634 45.8503C37.5224 45.8503 38.769 45.6024 39.9321 45.1206C41.0953 44.6388 42.1521 43.9326 43.0424 43.0424C43.9326 42.1521 44.6388 41.0953 45.1206 39.9321C45.6024 38.769 45.8503 37.5224 45.8503 36.2634C45.851 35.7329 45.8092 35.2032 45.7253 34.6795C45.6377 34.1618 45.5052 33.6527 45.3293 33.158Z" fill="#E6AB13"/>
</svg>
